<svg xmlns="http://www.w3.org/2000/svg" width="63" height="20.09" viewBox="0 0 63 20.09">
  <defs>
    <style>
      .cls-1 {
        fill: #fff;
        fill-rule: evenodd;
      }
    </style>
  </defs>
  <path id="visa.svg" class="cls-1" d="M2432.92,1497.29l-8.25,19.45h-5.38l-4.06-15.52a2.13,2.13,0,0,0-1.21-1.71,21.112,21.112,0,0,0-5.02-1.65l0.12-.57h8.66a2.366,2.366,0,0,1,2.35,1.98l2.14,11.26,5.3-13.24h5.35Zm21.08,13.1c0.03-5.13-7.18-5.42-7.13-7.71,0.02-.7.69-1.44,2.16-1.63a9.721,9.721,0,0,1,5.02.87l0.89-4.12a13.782,13.782,0,0,0-4.76-.86c-5.03,0-8.57,2.64-8.6,6.43-0.03,2.79,2.53,4.36,4.45,5.29,1.99,0.95,2.65,1.56,2.65,2.41-0.02,1.31-1.59,1.89-3.05,1.91a10.822,10.822,0,0,1-5.23-1.23l-0.92,4.26a15.536,15.536,0,0,0,5.66,1.03c5.35,0,8.85-2.61,8.86-6.65m13.29,6.35H2472l-4.11-19.45h-4.35a2.3,2.3,0,0,0-2.16,1.43l-7.64,18.02h5.34l1.06-2.91h6.53Zm-5.68-6.89,2.68-7.3,1.54,7.3h-4.22Zm-21.42-12.56-4.21,19.45h-5.09l4.21-19.45h5.09Z" transform="translate(-2409 -1496.94)"/>
</svg>
